<?xml version="1.0" encoding="utf-8"?><!-- Uploaded to: SVG Repo, www.svgrepo.com, Generator: SVG Repo Mixer Tools -->
<svg fill="#000000" width="800px" height="800px" viewBox="0 0 24 24" id="eraser-3" data-name="Flat Color" xmlns="http://www.w3.org/2000/svg" class="icon flat-color"><path id="primary" d="M2.59,12.93,12.93,2.59a2,2,0,0,1,2.83,0l5.65,5.65a2,2,0,0,1,0,2.83L11.07,21.41a2,2,0,0,1-2.83,0L2.59,15.76a2,2,0,0,1,0-2.83Z" style="fill: rgb(0, 0, 0);"></path><path id="secondary" d="M2.59,12.93,5.83,9.69l8.48,8.48L12.48,20H18a1,1,0,0,1,0,2H9.65a2,2,0,0,1-1.41-.59L2.59,15.76a2,2,0,0,1,0-2.83Z" style="fill: rgb(44, 169, 188);"></path></svg>